%TF.GenerationSoftware,KiCad,Pcbnew,4.0.6-e0-6349~53~ubuntu16.04.1*%
%TF.CreationDate,2017-06-05T20:25:56+01:00*%
%TF.ProjectId,RN2483shield,524E32343833736869656C642E6B6963,rev?*%
%TF.FileFunction,Legend,Bot*%
%FSLAX46Y46*%
G04 Gerber Fmt 4.6, Leading zero omitted, Abs format (unit mm)*
G04 Created by KiCad (PCBNEW 4.0.6-e0-6349~53~ubuntu16.04.1) date Mon Jun  5 20:25:56 2017*
%MOMM*%
%LPD*%
G01*
G04 APERTURE LIST*
%ADD10C,0.100000*%
%ADD11C,0.150000*%
%ADD12C,0.300000*%
%ADD13C,0.400000*%
%ADD14C,0.200000*%
%ADD15R,2.150000X2.050000*%
%ADD16C,2.150000*%
%ADD17O,1.924000X2.940000*%
%ADD18C,3.575000*%
%ADD19C,1.400000*%
%ADD20R,5.480000X2.686000*%
%ADD21C,1.924000*%
G04 APERTURE END LIST*
D10*
D11*
X177002200Y-166007200D02*
X177002200Y-198007200D01*
X285002200Y-198007200D01*
X285002200Y-166007200D01*
X177002200Y-166007200D01*
D10*
D11*
X10000000Y-10000000D02*
X10000000Y-200007200D01*
X287002200Y-200007200D01*
X287002200Y-10000000D01*
X10000000Y-10000000D01*
D10*
D11*
X12000000Y-12000000D02*
X12000000Y-198007200D01*
X285002200Y-198007200D01*
X285002200Y-12000000D01*
X12000000Y-12000000D01*
D10*
D11*
X60000000Y-12000000D02*
X60000000Y-10000000D01*
D10*
D11*
X110000000Y-12000000D02*
X110000000Y-10000000D01*
D10*
D11*
X160000000Y-12000000D02*
X160000000Y-10000000D01*
D10*
D11*
X210000000Y-12000000D02*
X210000000Y-10000000D01*
D10*
D11*
X260000000Y-12000000D02*
X260000000Y-10000000D01*
D10*
D11*
X35990476Y-11588095D02*
X35247619Y-11588095D01*
X35619048Y-11588095D02*
X35619048Y-10288095D01*
X35495238Y-10473810D01*
X35371429Y-10597619D01*
X35247619Y-10659524D01*
D10*
D11*
X85247619Y-10411905D02*
X85309524Y-10350000D01*
X85433333Y-10288095D01*
X85742857Y-10288095D01*
X85866667Y-10350000D01*
X85928571Y-10411905D01*
X85990476Y-10535714D01*
X85990476Y-10659524D01*
X85928571Y-10845238D01*
X85185714Y-11588095D01*
X85990476Y-11588095D01*
D10*
D11*
X135185714Y-10288095D02*
X135990476Y-10288095D01*
X135557143Y-10783333D01*
X135742857Y-10783333D01*
X135866667Y-10845238D01*
X135928571Y-10907143D01*
X135990476Y-11030952D01*
X135990476Y-11340476D01*
X135928571Y-11464286D01*
X135866667Y-11526190D01*
X135742857Y-11588095D01*
X135371429Y-11588095D01*
X135247619Y-11526190D01*
X135185714Y-11464286D01*
D10*
D11*
X185866667Y-10721429D02*
X185866667Y-11588095D01*
X185557143Y-10226190D02*
X185247619Y-11154762D01*
X186052381Y-11154762D01*
D10*
D11*
X235928571Y-10288095D02*
X235309524Y-10288095D01*
X235247619Y-10907143D01*
X235309524Y-10845238D01*
X235433333Y-10783333D01*
X235742857Y-10783333D01*
X235866667Y-10845238D01*
X235928571Y-10907143D01*
X235990476Y-11030952D01*
X235990476Y-11340476D01*
X235928571Y-11464286D01*
X235866667Y-11526190D01*
X235742857Y-11588095D01*
X235433333Y-11588095D01*
X235309524Y-11526190D01*
X235247619Y-11464286D01*
D10*
D11*
X285866667Y-10288095D02*
X285619048Y-10288095D01*
X285495238Y-10350000D01*
X285433333Y-10411905D01*
X285309524Y-10597619D01*
X285247619Y-10845238D01*
X285247619Y-11340476D01*
X285309524Y-11464286D01*
X285371429Y-11526190D01*
X285495238Y-11588095D01*
X285742857Y-11588095D01*
X285866667Y-11526190D01*
X285928571Y-11464286D01*
X285990476Y-11340476D01*
X285990476Y-11030952D01*
X285928571Y-10907143D01*
X285866667Y-10845238D01*
X285742857Y-10783333D01*
X285495238Y-10783333D01*
X285371429Y-10845238D01*
X285309524Y-10907143D01*
X285247619Y-11030952D01*
D10*
D11*
X60000000Y-198007200D02*
X60000000Y-200007200D01*
D10*
D11*
X110000000Y-198007200D02*
X110000000Y-200007200D01*
D10*
D11*
X160000000Y-198007200D02*
X160000000Y-200007200D01*
D10*
D11*
X210000000Y-198007200D02*
X210000000Y-200007200D01*
D10*
D11*
X260000000Y-198007200D02*
X260000000Y-200007200D01*
D10*
D11*
X35990476Y-199595295D02*
X35247619Y-199595295D01*
X35619048Y-199595295D02*
X35619048Y-198295295D01*
X35495238Y-198481010D01*
X35371429Y-198604819D01*
X35247619Y-198666724D01*
D10*
D11*
X85247619Y-198419105D02*
X85309524Y-198357200D01*
X85433333Y-198295295D01*
X85742857Y-198295295D01*
X85866667Y-198357200D01*
X85928571Y-198419105D01*
X85990476Y-198542914D01*
X85990476Y-198666724D01*
X85928571Y-198852438D01*
X85185714Y-199595295D01*
X85990476Y-199595295D01*
D10*
D11*
X135185714Y-198295295D02*
X135990476Y-198295295D01*
X135557143Y-198790533D01*
X135742857Y-198790533D01*
X135866667Y-198852438D01*
X135928571Y-198914343D01*
X135990476Y-199038152D01*
X135990476Y-199347676D01*
X135928571Y-199471486D01*
X135866667Y-199533390D01*
X135742857Y-199595295D01*
X135371429Y-199595295D01*
X135247619Y-199533390D01*
X135185714Y-199471486D01*
D10*
D11*
X185866667Y-198728629D02*
X185866667Y-199595295D01*
X185557143Y-198233390D02*
X185247619Y-199161962D01*
X186052381Y-199161962D01*
D10*
D11*
X235928571Y-198295295D02*
X235309524Y-198295295D01*
X235247619Y-198914343D01*
X235309524Y-198852438D01*
X235433333Y-198790533D01*
X235742857Y-198790533D01*
X235866667Y-198852438D01*
X235928571Y-198914343D01*
X235990476Y-199038152D01*
X235990476Y-199347676D01*
X235928571Y-199471486D01*
X235866667Y-199533390D01*
X235742857Y-199595295D01*
X235433333Y-199595295D01*
X235309524Y-199533390D01*
X235247619Y-199471486D01*
D10*
D11*
X285866667Y-198295295D02*
X285619048Y-198295295D01*
X285495238Y-198357200D01*
X285433333Y-198419105D01*
X285309524Y-198604819D01*
X285247619Y-198852438D01*
X285247619Y-199347676D01*
X285309524Y-199471486D01*
X285371429Y-199533390D01*
X285495238Y-199595295D01*
X285742857Y-199595295D01*
X285866667Y-199533390D01*
X285928571Y-199471486D01*
X285990476Y-199347676D01*
X285990476Y-199038152D01*
X285928571Y-198914343D01*
X285866667Y-198852438D01*
X285742857Y-198790533D01*
X285495238Y-198790533D01*
X285371429Y-198852438D01*
X285309524Y-198914343D01*
X285247619Y-199038152D01*
D10*
D11*
X10000000Y-60000000D02*
X12000000Y-60000000D01*
D10*
D11*
X10000000Y-110000000D02*
X12000000Y-110000000D01*
D10*
D11*
X10000000Y-160000000D02*
X12000000Y-160000000D01*
D10*
D11*
X10690476Y-35216667D02*
X11309524Y-35216667D01*
X10566667Y-35588095D02*
X11000000Y-34288095D01*
X11433333Y-35588095D01*
D10*
D11*
X11092857Y-84907143D02*
X11278571Y-84969048D01*
X11340476Y-85030952D01*
X11402381Y-85154762D01*
X11402381Y-85340476D01*
X11340476Y-85464286D01*
X11278571Y-85526190D01*
X11154762Y-85588095D01*
X10659524Y-85588095D01*
X10659524Y-84288095D01*
X11092857Y-84288095D01*
X11216667Y-84350000D01*
X11278571Y-84411905D01*
X11340476Y-84535714D01*
X11340476Y-84659524D01*
X11278571Y-84783333D01*
X11216667Y-84845238D01*
X11092857Y-84907143D01*
X10659524Y-84907143D01*
D10*
D11*
X11402381Y-135464286D02*
X11340476Y-135526190D01*
X11154762Y-135588095D01*
X11030952Y-135588095D01*
X10845238Y-135526190D01*
X10721429Y-135402381D01*
X10659524Y-135278571D01*
X10597619Y-135030952D01*
X10597619Y-134845238D01*
X10659524Y-134597619D01*
X10721429Y-134473810D01*
X10845238Y-134350000D01*
X11030952Y-134288095D01*
X11154762Y-134288095D01*
X11340476Y-134350000D01*
X11402381Y-134411905D01*
D10*
D11*
X10659524Y-185588095D02*
X10659524Y-184288095D01*
X10969048Y-184288095D01*
X11154762Y-184350000D01*
X11278571Y-184473810D01*
X11340476Y-184597619D01*
X11402381Y-184845238D01*
X11402381Y-185030952D01*
X11340476Y-185278571D01*
X11278571Y-185402381D01*
X11154762Y-185526190D01*
X10969048Y-185588095D01*
X10659524Y-185588095D01*
D10*
D11*
X287002200Y-60000000D02*
X285002200Y-60000000D01*
D10*
D11*
X287002200Y-110000000D02*
X285002200Y-110000000D01*
D10*
D11*
X287002200Y-160000000D02*
X285002200Y-160000000D01*
D10*
D11*
X285692676Y-35216667D02*
X286311724Y-35216667D01*
X285568867Y-35588095D02*
X286002200Y-34288095D01*
X286435533Y-35588095D01*
D10*
D11*
X286095057Y-84907143D02*
X286280771Y-84969048D01*
X286342676Y-85030952D01*
X286404581Y-85154762D01*
X286404581Y-85340476D01*
X286342676Y-85464286D01*
X286280771Y-85526190D01*
X286156962Y-85588095D01*
X285661724Y-85588095D01*
X285661724Y-84288095D01*
X286095057Y-84288095D01*
X286218867Y-84350000D01*
X286280771Y-84411905D01*
X286342676Y-84535714D01*
X286342676Y-84659524D01*
X286280771Y-84783333D01*
X286218867Y-84845238D01*
X286095057Y-84907143D01*
X285661724Y-84907143D01*
D10*
D11*
X286404581Y-135464286D02*
X286342676Y-135526190D01*
X286156962Y-135588095D01*
X286033152Y-135588095D01*
X285847438Y-135526190D01*
X285723629Y-135402381D01*
X285661724Y-135278571D01*
X285599819Y-135030952D01*
X285599819Y-134845238D01*
X285661724Y-134597619D01*
X285723629Y-134473810D01*
X285847438Y-134350000D01*
X286033152Y-134288095D01*
X286156962Y-134288095D01*
X286342676Y-134350000D01*
X286404581Y-134411905D01*
D10*
D11*
X285661724Y-185588095D02*
X285661724Y-184288095D01*
X285971248Y-184288095D01*
X286156962Y-184350000D01*
X286280771Y-184473810D01*
X286342676Y-184597619D01*
X286404581Y-184845238D01*
X286404581Y-185030952D01*
X286342676Y-185278571D01*
X286280771Y-185402381D01*
X286156962Y-185526190D01*
X285971248Y-185588095D01*
X285661724Y-185588095D01*
D10*
D11*
X200359343Y-193785771D02*
X200359343Y-192285771D01*
X200716486Y-192285771D01*
X200930771Y-192357200D01*
X201073629Y-192500057D01*
X201145057Y-192642914D01*
X201216486Y-192928629D01*
X201216486Y-193142914D01*
X201145057Y-193428629D01*
X201073629Y-193571486D01*
X200930771Y-193714343D01*
X200716486Y-193785771D01*
X200359343Y-193785771D01*
X202502200Y-193785771D02*
X202502200Y-193000057D01*
X202430771Y-192857200D01*
X202287914Y-192785771D01*
X202002200Y-192785771D01*
X201859343Y-192857200D01*
X202502200Y-193714343D02*
X202359343Y-193785771D01*
X202002200Y-193785771D01*
X201859343Y-193714343D01*
X201787914Y-193571486D01*
X201787914Y-193428629D01*
X201859343Y-193285771D01*
X202002200Y-193214343D01*
X202359343Y-193214343D01*
X202502200Y-193142914D01*
X203002200Y-192785771D02*
X203573629Y-192785771D01*
X203216486Y-192285771D02*
X203216486Y-193571486D01*
X203287914Y-193714343D01*
X203430772Y-193785771D01*
X203573629Y-193785771D01*
X204645057Y-193714343D02*
X204502200Y-193785771D01*
X204216486Y-193785771D01*
X204073629Y-193714343D01*
X204002200Y-193571486D01*
X204002200Y-193000057D01*
X204073629Y-192857200D01*
X204216486Y-192785771D01*
X204502200Y-192785771D01*
X204645057Y-192857200D01*
X204716486Y-193000057D01*
X204716486Y-193142914D01*
X204002200Y-193285771D01*
X205359343Y-193642914D02*
X205430771Y-193714343D01*
X205359343Y-193785771D01*
X205287914Y-193714343D01*
X205359343Y-193642914D01*
X205359343Y-193785771D01*
X205359343Y-192857200D02*
X205430771Y-192928629D01*
X205359343Y-193000057D01*
X205287914Y-192928629D01*
X205359343Y-192857200D01*
X205359343Y-193000057D01*
D10*
D11*
X177002200Y-194507200D02*
X285002200Y-194507200D01*
D10*
D11*
X178359343Y-196585771D02*
X178359343Y-195085771D01*
X179216486Y-196585771D02*
X178573629Y-195728629D01*
X179216486Y-195085771D02*
X178359343Y-195942914D01*
X179859343Y-196585771D02*
X179859343Y-195585771D01*
X179859343Y-195085771D02*
X179787914Y-195157200D01*
X179859343Y-195228629D01*
X179930771Y-195157200D01*
X179859343Y-195085771D01*
X179859343Y-195228629D01*
X181430772Y-196442914D02*
X181359343Y-196514343D01*
X181145057Y-196585771D01*
X181002200Y-196585771D01*
X180787915Y-196514343D01*
X180645057Y-196371486D01*
X180573629Y-196228629D01*
X180502200Y-195942914D01*
X180502200Y-195728629D01*
X180573629Y-195442914D01*
X180645057Y-195300057D01*
X180787915Y-195157200D01*
X181002200Y-195085771D01*
X181145057Y-195085771D01*
X181359343Y-195157200D01*
X181430772Y-195228629D01*
X182716486Y-196585771D02*
X182716486Y-195800057D01*
X182645057Y-195657200D01*
X182502200Y-195585771D01*
X182216486Y-195585771D01*
X182073629Y-195657200D01*
X182716486Y-196514343D02*
X182573629Y-196585771D01*
X182216486Y-196585771D01*
X182073629Y-196514343D01*
X182002200Y-196371486D01*
X182002200Y-196228629D01*
X182073629Y-196085771D01*
X182216486Y-196014343D01*
X182573629Y-196014343D01*
X182716486Y-195942914D01*
X184073629Y-196585771D02*
X184073629Y-195085771D01*
X184073629Y-196514343D02*
X183930772Y-196585771D01*
X183645058Y-196585771D01*
X183502200Y-196514343D01*
X183430772Y-196442914D01*
X183359343Y-196300057D01*
X183359343Y-195871486D01*
X183430772Y-195728629D01*
X183502200Y-195657200D01*
X183645058Y-195585771D01*
X183930772Y-195585771D01*
X184073629Y-195657200D01*
X185930772Y-195800057D02*
X186430772Y-195800057D01*
X186645058Y-196585771D02*
X185930772Y-196585771D01*
X185930772Y-195085771D01*
X186645058Y-195085771D01*
X187287915Y-196442914D02*
X187359343Y-196514343D01*
X187287915Y-196585771D01*
X187216486Y-196514343D01*
X187287915Y-196442914D01*
X187287915Y-196585771D01*
X188002201Y-196585771D02*
X188002201Y-195085771D01*
X188359344Y-195085771D01*
X188573629Y-195157200D01*
X188716487Y-195300057D01*
X188787915Y-195442914D01*
X188859344Y-195728629D01*
X188859344Y-195942914D01*
X188787915Y-196228629D01*
X188716487Y-196371486D01*
X188573629Y-196514343D01*
X188359344Y-196585771D01*
X188002201Y-196585771D01*
X189502201Y-196442914D02*
X189573629Y-196514343D01*
X189502201Y-196585771D01*
X189430772Y-196514343D01*
X189502201Y-196442914D01*
X189502201Y-196585771D01*
X190145058Y-196157200D02*
X190859344Y-196157200D01*
X190002201Y-196585771D02*
X190502201Y-195085771D01*
X191002201Y-196585771D01*
X191502201Y-196442914D02*
X191573629Y-196514343D01*
X191502201Y-196585771D01*
X191430772Y-196514343D01*
X191502201Y-196442914D01*
X191502201Y-196585771D01*
X194502201Y-196585771D02*
X194502201Y-195085771D01*
X194645058Y-196014343D02*
X195073629Y-196585771D01*
X195073629Y-195585771D02*
X194502201Y-196157200D01*
X195716487Y-196585771D02*
X195716487Y-195585771D01*
X195716487Y-195085771D02*
X195645058Y-195157200D01*
X195716487Y-195228629D01*
X195787915Y-195157200D01*
X195716487Y-195085771D01*
X195716487Y-195228629D01*
X197073630Y-196514343D02*
X196930773Y-196585771D01*
X196645059Y-196585771D01*
X196502201Y-196514343D01*
X196430773Y-196442914D01*
X196359344Y-196300057D01*
X196359344Y-195871486D01*
X196430773Y-195728629D01*
X196502201Y-195657200D01*
X196645059Y-195585771D01*
X196930773Y-195585771D01*
X197073630Y-195657200D01*
X198359344Y-196585771D02*
X198359344Y-195800057D01*
X198287915Y-195657200D01*
X198145058Y-195585771D01*
X197859344Y-195585771D01*
X197716487Y-195657200D01*
X198359344Y-196514343D02*
X198216487Y-196585771D01*
X197859344Y-196585771D01*
X197716487Y-196514343D01*
X197645058Y-196371486D01*
X197645058Y-196228629D01*
X197716487Y-196085771D01*
X197859344Y-196014343D01*
X198216487Y-196014343D01*
X198359344Y-195942914D01*
X199716487Y-196585771D02*
X199716487Y-195085771D01*
X199716487Y-196514343D02*
X199573630Y-196585771D01*
X199287916Y-196585771D01*
X199145058Y-196514343D01*
X199073630Y-196442914D01*
X199002201Y-196300057D01*
X199002201Y-195871486D01*
X199073630Y-195728629D01*
X199145058Y-195657200D01*
X199287916Y-195585771D01*
X199573630Y-195585771D01*
X199716487Y-195657200D01*
X202216487Y-195585771D02*
X202216487Y-196585771D01*
X201859344Y-195014343D02*
X201502201Y-196085771D01*
X202430773Y-196085771D01*
X203002201Y-196442914D02*
X203073629Y-196514343D01*
X203002201Y-196585771D01*
X202930772Y-196514343D01*
X203002201Y-196442914D01*
X203002201Y-196585771D01*
X204002201Y-195085771D02*
X204145058Y-195085771D01*
X204287915Y-195157200D01*
X204359344Y-195228629D01*
X204430773Y-195371486D01*
X204502201Y-195657200D01*
X204502201Y-196014343D01*
X204430773Y-196300057D01*
X204359344Y-196442914D01*
X204287915Y-196514343D01*
X204145058Y-196585771D01*
X204002201Y-196585771D01*
X203859344Y-196514343D01*
X203787915Y-196442914D01*
X203716487Y-196300057D01*
X203645058Y-196014343D01*
X203645058Y-195657200D01*
X203716487Y-195371486D01*
X203787915Y-195228629D01*
X203859344Y-195157200D01*
X204002201Y-195085771D01*
X205145058Y-196442914D02*
X205216486Y-196514343D01*
X205145058Y-196585771D01*
X205073629Y-196514343D01*
X205145058Y-196442914D01*
X205145058Y-196585771D01*
X206502201Y-195085771D02*
X206216487Y-195085771D01*
X206073630Y-195157200D01*
X206002201Y-195228629D01*
X205859344Y-195442914D01*
X205787915Y-195728629D01*
X205787915Y-196300057D01*
X205859344Y-196442914D01*
X205930772Y-196514343D01*
X206073630Y-196585771D01*
X206359344Y-196585771D01*
X206502201Y-196514343D01*
X206573630Y-196442914D01*
X206645058Y-196300057D01*
X206645058Y-195942914D01*
X206573630Y-195800057D01*
X206502201Y-195728629D01*
X206359344Y-195657200D01*
X206073630Y-195657200D01*
X205930772Y-195728629D01*
X205859344Y-195800057D01*
X205787915Y-195942914D01*
X207287915Y-196014343D02*
X208430772Y-196014343D01*
X209716486Y-196514343D02*
X209573629Y-196585771D01*
X209287915Y-196585771D01*
X209145058Y-196514343D01*
X209073629Y-196371486D01*
X209073629Y-195800057D01*
X209145058Y-195657200D01*
X209287915Y-195585771D01*
X209573629Y-195585771D01*
X209716486Y-195657200D01*
X209787915Y-195800057D01*
X209787915Y-195942914D01*
X209073629Y-196085771D01*
X210716486Y-195085771D02*
X210859343Y-195085771D01*
X211002200Y-195157200D01*
X211073629Y-195228629D01*
X211145058Y-195371486D01*
X211216486Y-195657200D01*
X211216486Y-196014343D01*
X211145058Y-196300057D01*
X211073629Y-196442914D01*
X211002200Y-196514343D01*
X210859343Y-196585771D01*
X210716486Y-196585771D01*
X210573629Y-196514343D01*
X210502200Y-196442914D01*
X210430772Y-196300057D01*
X210359343Y-196014343D01*
X210359343Y-195657200D01*
X210430772Y-195371486D01*
X210502200Y-195228629D01*
X210573629Y-195157200D01*
X210716486Y-195085771D01*
X211859343Y-196014343D02*
X213002200Y-196014343D01*
X214359343Y-195085771D02*
X214073629Y-195085771D01*
X213930772Y-195157200D01*
X213859343Y-195228629D01*
X213716486Y-195442914D01*
X213645057Y-195728629D01*
X213645057Y-196300057D01*
X213716486Y-196442914D01*
X213787914Y-196514343D01*
X213930772Y-196585771D01*
X214216486Y-196585771D01*
X214359343Y-196514343D01*
X214430772Y-196442914D01*
X214502200Y-196300057D01*
X214502200Y-195942914D01*
X214430772Y-195800057D01*
X214359343Y-195728629D01*
X214216486Y-195657200D01*
X213930772Y-195657200D01*
X213787914Y-195728629D01*
X213716486Y-195800057D01*
X213645057Y-195942914D01*
X215002200Y-195085771D02*
X215930771Y-195085771D01*
X215430771Y-195657200D01*
X215645057Y-195657200D01*
X215787914Y-195728629D01*
X215859343Y-195800057D01*
X215930771Y-195942914D01*
X215930771Y-196300057D01*
X215859343Y-196442914D01*
X215787914Y-196514343D01*
X215645057Y-196585771D01*
X215216485Y-196585771D01*
X215073628Y-196514343D01*
X215002200Y-196442914D01*
X217216485Y-195585771D02*
X217216485Y-196585771D01*
X216859342Y-195014343D02*
X216502199Y-196085771D01*
X217430771Y-196085771D01*
X218073627Y-196585771D02*
X218359342Y-196585771D01*
X218502199Y-196514343D01*
X218573627Y-196442914D01*
X218716485Y-196228629D01*
X218787913Y-195942914D01*
X218787913Y-195371486D01*
X218716485Y-195228629D01*
X218645056Y-195157200D01*
X218502199Y-195085771D01*
X218216485Y-195085771D01*
X218073627Y-195157200D01*
X218002199Y-195228629D01*
X217930770Y-195371486D01*
X217930770Y-195728629D01*
X218002199Y-195871486D01*
X218073627Y-195942914D01*
X218216485Y-196014343D01*
X218502199Y-196014343D01*
X218645056Y-195942914D01*
X218716485Y-195871486D01*
X218787913Y-195728629D01*
X220145056Y-195085771D02*
X219430770Y-195085771D01*
X219359341Y-195800057D01*
X219430770Y-195728629D01*
X219573627Y-195657200D01*
X219930770Y-195657200D01*
X220073627Y-195728629D01*
X220145056Y-195800057D01*
X220216484Y-195942914D01*
X220216484Y-196300057D01*
X220145056Y-196442914D01*
X220073627Y-196514343D01*
X219930770Y-196585771D01*
X219573627Y-196585771D01*
X219430770Y-196514343D01*
X219359341Y-196442914D01*
X220716484Y-195085771D02*
X221645055Y-195085771D01*
X221145055Y-195657200D01*
X221359341Y-195657200D01*
X221502198Y-195728629D01*
X221573627Y-195800057D01*
X221645055Y-195942914D01*
X221645055Y-196300057D01*
X221573627Y-196442914D01*
X221502198Y-196514343D01*
X221359341Y-196585771D01*
X220930769Y-196585771D01*
X220787912Y-196514343D01*
X220716484Y-196442914D01*
X219073627Y-194827200D02*
X221930769Y-194827200D01*
X222930769Y-195585771D02*
X222930769Y-196585771D01*
X222287912Y-195585771D02*
X222287912Y-196371486D01*
X222359340Y-196514343D01*
X222502198Y-196585771D01*
X222716483Y-196585771D01*
X222859340Y-196514343D01*
X222930769Y-196442914D01*
X223645055Y-196585771D02*
X223645055Y-195085771D01*
X223645055Y-195657200D02*
X223787912Y-195585771D01*
X224073626Y-195585771D01*
X224216483Y-195657200D01*
X224287912Y-195728629D01*
X224359341Y-195871486D01*
X224359341Y-196300057D01*
X224287912Y-196442914D01*
X224216483Y-196514343D01*
X224073626Y-196585771D01*
X223787912Y-196585771D01*
X223645055Y-196514343D01*
X225645055Y-195585771D02*
X225645055Y-196585771D01*
X225002198Y-195585771D02*
X225002198Y-196371486D01*
X225073626Y-196514343D01*
X225216484Y-196585771D01*
X225430769Y-196585771D01*
X225573626Y-196514343D01*
X225645055Y-196442914D01*
X226359341Y-195585771D02*
X226359341Y-196585771D01*
X226359341Y-195728629D02*
X226430769Y-195657200D01*
X226573627Y-195585771D01*
X226787912Y-195585771D01*
X226930769Y-195657200D01*
X227002198Y-195800057D01*
X227002198Y-196585771D01*
X227502198Y-195585771D02*
X228073627Y-195585771D01*
X227716484Y-195085771D02*
X227716484Y-196371486D01*
X227787912Y-196514343D01*
X227930770Y-196585771D01*
X228073627Y-196585771D01*
X229216484Y-195585771D02*
X229216484Y-196585771D01*
X228573627Y-195585771D02*
X228573627Y-196371486D01*
X228645055Y-196514343D01*
X228787913Y-196585771D01*
X229002198Y-196585771D01*
X229145055Y-196514343D01*
X229216484Y-196442914D01*
X230716484Y-196585771D02*
X229859341Y-196585771D01*
X230287913Y-196585771D02*
X230287913Y-195085771D01*
X230145056Y-195300057D01*
X230002198Y-195442914D01*
X229859341Y-195514343D01*
X232002198Y-195085771D02*
X231716484Y-195085771D01*
X231573627Y-195157200D01*
X231502198Y-195228629D01*
X231359341Y-195442914D01*
X231287912Y-195728629D01*
X231287912Y-196300057D01*
X231359341Y-196442914D01*
X231430769Y-196514343D01*
X231573627Y-196585771D01*
X231859341Y-196585771D01*
X232002198Y-196514343D01*
X232073627Y-196442914D01*
X232145055Y-196300057D01*
X232145055Y-195942914D01*
X232073627Y-195800057D01*
X232002198Y-195728629D01*
X231859341Y-195657200D01*
X231573627Y-195657200D01*
X231430769Y-195728629D01*
X231359341Y-195800057D01*
X231287912Y-195942914D01*
X232787912Y-196442914D02*
X232859340Y-196514343D01*
X232787912Y-196585771D01*
X232716483Y-196514343D01*
X232787912Y-196442914D01*
X232787912Y-196585771D01*
X233787912Y-195085771D02*
X233930769Y-195085771D01*
X234073626Y-195157200D01*
X234145055Y-195228629D01*
X234216484Y-195371486D01*
X234287912Y-195657200D01*
X234287912Y-196014343D01*
X234216484Y-196300057D01*
X234145055Y-196442914D01*
X234073626Y-196514343D01*
X233930769Y-196585771D01*
X233787912Y-196585771D01*
X233645055Y-196514343D01*
X233573626Y-196442914D01*
X233502198Y-196300057D01*
X233430769Y-196014343D01*
X233430769Y-195657200D01*
X233502198Y-195371486D01*
X233573626Y-195228629D01*
X233645055Y-195157200D01*
X233787912Y-195085771D01*
X235573626Y-195585771D02*
X235573626Y-196585771D01*
X235216483Y-195014343D02*
X234859340Y-196085771D01*
X235787912Y-196085771D01*
X236359340Y-196442914D02*
X236430768Y-196514343D01*
X236359340Y-196585771D01*
X236287911Y-196514343D01*
X236359340Y-196442914D01*
X236359340Y-196585771D01*
X237859340Y-196585771D02*
X237002197Y-196585771D01*
X237430769Y-196585771D02*
X237430769Y-195085771D01*
X237287912Y-195300057D01*
X237145054Y-195442914D01*
X237002197Y-195514343D01*
D10*
D11*
X177002200Y-191507200D02*
X285002200Y-191507200D01*
D10*
D12*
X264216486Y-193785771D02*
X263716486Y-193071486D01*
X263359343Y-193785771D02*
X263359343Y-192285771D01*
X263930771Y-192285771D01*
X264073629Y-192357200D01*
X264145057Y-192428629D01*
X264216486Y-192571486D01*
X264216486Y-192785771D01*
X264145057Y-192928629D01*
X264073629Y-193000057D01*
X263930771Y-193071486D01*
X263359343Y-193071486D01*
X265430771Y-193714343D02*
X265287914Y-193785771D01*
X265002200Y-193785771D01*
X264859343Y-193714343D01*
X264787914Y-193571486D01*
X264787914Y-193000057D01*
X264859343Y-192857200D01*
X265002200Y-192785771D01*
X265287914Y-192785771D01*
X265430771Y-192857200D01*
X265502200Y-193000057D01*
X265502200Y-193142914D01*
X264787914Y-193285771D01*
X266002200Y-192785771D02*
X266359343Y-193785771D01*
X266716485Y-192785771D01*
X267287914Y-193642914D02*
X267359342Y-193714343D01*
X267287914Y-193785771D01*
X267216485Y-193714343D01*
X267287914Y-193642914D01*
X267287914Y-193785771D01*
X267287914Y-192857200D02*
X267359342Y-192928629D01*
X267287914Y-193000057D01*
X267216485Y-192928629D01*
X267287914Y-192857200D01*
X267287914Y-193000057D01*
D10*
D11*
X178287914Y-193714343D02*
X178502200Y-193785771D01*
X178859343Y-193785771D01*
X179002200Y-193714343D01*
X179073629Y-193642914D01*
X179145057Y-193500057D01*
X179145057Y-193357200D01*
X179073629Y-193214343D01*
X179002200Y-193142914D01*
X178859343Y-193071486D01*
X178573629Y-193000057D01*
X178430771Y-192928629D01*
X178359343Y-192857200D01*
X178287914Y-192714343D01*
X178287914Y-192571486D01*
X178359343Y-192428629D01*
X178430771Y-192357200D01*
X178573629Y-192285771D01*
X178930771Y-192285771D01*
X179145057Y-192357200D01*
X179787914Y-193785771D02*
X179787914Y-192785771D01*
X179787914Y-192285771D02*
X179716485Y-192357200D01*
X179787914Y-192428629D01*
X179859342Y-192357200D01*
X179787914Y-192285771D01*
X179787914Y-192428629D01*
X180359343Y-192785771D02*
X181145057Y-192785771D01*
X180359343Y-193785771D01*
X181145057Y-193785771D01*
X182287914Y-193714343D02*
X182145057Y-193785771D01*
X181859343Y-193785771D01*
X181716486Y-193714343D01*
X181645057Y-193571486D01*
X181645057Y-193000057D01*
X181716486Y-192857200D01*
X181859343Y-192785771D01*
X182145057Y-192785771D01*
X182287914Y-192857200D01*
X182359343Y-193000057D01*
X182359343Y-193142914D01*
X181645057Y-193285771D01*
X183002200Y-193642914D02*
X183073628Y-193714343D01*
X183002200Y-193785771D01*
X182930771Y-193714343D01*
X183002200Y-193642914D01*
X183002200Y-193785771D01*
X183002200Y-192857200D02*
X183073628Y-192928629D01*
X183002200Y-193000057D01*
X182930771Y-192928629D01*
X183002200Y-192857200D01*
X183002200Y-193000057D01*
X184787914Y-193357200D02*
X185502200Y-193357200D01*
X184645057Y-193785771D02*
X185145057Y-192285771D01*
X185645057Y-193785771D01*
X186787914Y-192785771D02*
X186787914Y-193785771D01*
X186430771Y-192214343D02*
X186073628Y-193285771D01*
X187002200Y-193285771D01*
D10*
D11*
X263359343Y-196585771D02*
X263359343Y-195085771D01*
X264716486Y-196585771D02*
X264716486Y-195085771D01*
X264716486Y-196514343D02*
X264573629Y-196585771D01*
X264287915Y-196585771D01*
X264145057Y-196514343D01*
X264073629Y-196442914D01*
X264002200Y-196300057D01*
X264002200Y-195871486D01*
X264073629Y-195728629D01*
X264145057Y-195657200D01*
X264287915Y-195585771D01*
X264573629Y-195585771D01*
X264716486Y-195657200D01*
X265430772Y-196442914D02*
X265502200Y-196514343D01*
X265430772Y-196585771D01*
X265359343Y-196514343D01*
X265430772Y-196442914D01*
X265430772Y-196585771D01*
X265430772Y-195657200D02*
X265502200Y-195728629D01*
X265430772Y-195800057D01*
X265359343Y-195728629D01*
X265430772Y-195657200D01*
X265430772Y-195800057D01*
X268073629Y-196585771D02*
X267216486Y-196585771D01*
X267645058Y-196585771D02*
X267645058Y-195085771D01*
X267502201Y-195300057D01*
X267359343Y-195442914D01*
X267216486Y-195514343D01*
X269787914Y-195014343D02*
X268502200Y-196942914D01*
X271073629Y-196585771D02*
X270216486Y-196585771D01*
X270645058Y-196585771D02*
X270645058Y-195085771D01*
X270502201Y-195300057D01*
X270359343Y-195442914D01*
X270216486Y-195514343D01*
D10*
D11*
X177002200Y-187507200D02*
X285002200Y-187507200D01*
D10*
D13*
X178454581Y-188211962D02*
X179597438Y-188211962D01*
X178776010Y-190211962D02*
X179026010Y-188211962D01*
X180014105Y-190211962D02*
X180180771Y-188878629D01*
X180264105Y-188211962D02*
X180156962Y-188307200D01*
X180240295Y-188402438D01*
X180347439Y-188307200D01*
X180264105Y-188211962D01*
X180240295Y-188402438D01*
X180847438Y-188878629D02*
X181609343Y-188878629D01*
X181216486Y-188211962D02*
X181002200Y-189926248D01*
X181073630Y-190116724D01*
X181252201Y-190211962D01*
X181442677Y-190211962D01*
X182395058Y-190211962D02*
X182216487Y-190116724D01*
X182145057Y-189926248D01*
X182359343Y-188211962D01*
X183930772Y-190116724D02*
X183728391Y-190211962D01*
X183347439Y-190211962D01*
X183168867Y-190116724D01*
X183097438Y-189926248D01*
X183192676Y-189164343D01*
X183311724Y-188973867D01*
X183514105Y-188878629D01*
X183895057Y-188878629D01*
X184073629Y-188973867D01*
X184145057Y-189164343D01*
X184121248Y-189354819D01*
X183145057Y-189545295D01*
X184895057Y-190021486D02*
X184978392Y-190116724D01*
X184871248Y-190211962D01*
X184787915Y-190116724D01*
X184895057Y-190021486D01*
X184871248Y-190211962D01*
X185026010Y-188973867D02*
X185109344Y-189069105D01*
X185002200Y-189164343D01*
X184918867Y-189069105D01*
X185026010Y-188973867D01*
X185002200Y-189164343D01*
D10*
D11*
X178859343Y-185600057D02*
X178359343Y-185600057D01*
X178359343Y-186385771D02*
X178359343Y-184885771D01*
X179073629Y-184885771D01*
X179645057Y-186385771D02*
X179645057Y-185385771D01*
X179645057Y-184885771D02*
X179573628Y-184957200D01*
X179645057Y-185028629D01*
X179716485Y-184957200D01*
X179645057Y-184885771D01*
X179645057Y-185028629D01*
X180573629Y-186385771D02*
X180430771Y-186314343D01*
X180359343Y-186171486D01*
X180359343Y-184885771D01*
X181716485Y-186314343D02*
X181573628Y-186385771D01*
X181287914Y-186385771D01*
X181145057Y-186314343D01*
X181073628Y-186171486D01*
X181073628Y-185600057D01*
X181145057Y-185457200D01*
X181287914Y-185385771D01*
X181573628Y-185385771D01*
X181716485Y-185457200D01*
X181787914Y-185600057D01*
X181787914Y-185742914D01*
X181073628Y-185885771D01*
X182430771Y-186242914D02*
X182502199Y-186314343D01*
X182430771Y-186385771D01*
X182359342Y-186314343D01*
X182430771Y-186242914D01*
X182430771Y-186385771D01*
X182430771Y-185457200D02*
X182502199Y-185528629D01*
X182430771Y-185600057D01*
X182359342Y-185528629D01*
X182430771Y-185457200D01*
X182430771Y-185600057D01*
X185145057Y-186385771D02*
X184645057Y-185671486D01*
X184287914Y-186385771D02*
X184287914Y-184885771D01*
X184859342Y-184885771D01*
X185002200Y-184957200D01*
X185073628Y-185028629D01*
X185145057Y-185171486D01*
X185145057Y-185385771D01*
X185073628Y-185528629D01*
X185002200Y-185600057D01*
X184859342Y-185671486D01*
X184287914Y-185671486D01*
X185787914Y-186385771D02*
X185787914Y-184885771D01*
X186645057Y-186385771D01*
X186645057Y-184885771D01*
X187287914Y-185028629D02*
X187359343Y-184957200D01*
X187502200Y-184885771D01*
X187859343Y-184885771D01*
X188002200Y-184957200D01*
X188073629Y-185028629D01*
X188145057Y-185171486D01*
X188145057Y-185314343D01*
X188073629Y-185528629D01*
X187216486Y-186385771D01*
X188145057Y-186385771D01*
X189430771Y-185385771D02*
X189430771Y-186385771D01*
X189073628Y-184814343D02*
X188716485Y-185885771D01*
X189645057Y-185885771D01*
X190430771Y-185528629D02*
X190287913Y-185457200D01*
X190216485Y-185385771D01*
X190145056Y-185242914D01*
X190145056Y-185171486D01*
X190216485Y-185028629D01*
X190287913Y-184957200D01*
X190430771Y-184885771D01*
X190716485Y-184885771D01*
X190859342Y-184957200D01*
X190930771Y-185028629D01*
X191002199Y-185171486D01*
X191002199Y-185242914D01*
X190930771Y-185385771D01*
X190859342Y-185457200D01*
X190716485Y-185528629D01*
X190430771Y-185528629D01*
X190287913Y-185600057D01*
X190216485Y-185671486D01*
X190145056Y-185814343D01*
X190145056Y-186100057D01*
X190216485Y-186242914D01*
X190287913Y-186314343D01*
X190430771Y-186385771D01*
X190716485Y-186385771D01*
X190859342Y-186314343D01*
X190930771Y-186242914D01*
X191002199Y-186100057D01*
X191002199Y-185814343D01*
X190930771Y-185671486D01*
X190859342Y-185600057D01*
X190716485Y-185528629D01*
X191502199Y-184885771D02*
X192430770Y-184885771D01*
X191930770Y-185457200D01*
X192145056Y-185457200D01*
X192287913Y-185528629D01*
X192359342Y-185600057D01*
X192430770Y-185742914D01*
X192430770Y-186100057D01*
X192359342Y-186242914D01*
X192287913Y-186314343D01*
X192145056Y-186385771D01*
X191716484Y-186385771D01*
X191573627Y-186314343D01*
X191502199Y-186242914D01*
X193002198Y-186314343D02*
X193145055Y-186385771D01*
X193430770Y-186385771D01*
X193573627Y-186314343D01*
X193645055Y-186171486D01*
X193645055Y-186100057D01*
X193573627Y-185957200D01*
X193430770Y-185885771D01*
X193216484Y-185885771D01*
X193073627Y-185814343D01*
X193002198Y-185671486D01*
X193002198Y-185600057D01*
X193073627Y-185457200D01*
X193216484Y-185385771D01*
X193430770Y-185385771D01*
X193573627Y-185457200D01*
X194287913Y-186385771D02*
X194287913Y-184885771D01*
X194930770Y-186385771D02*
X194930770Y-185600057D01*
X194859341Y-185457200D01*
X194716484Y-185385771D01*
X194502199Y-185385771D01*
X194359341Y-185457200D01*
X194287913Y-185528629D01*
X195645056Y-186385771D02*
X195645056Y-185385771D01*
X195645056Y-184885771D02*
X195573627Y-184957200D01*
X195645056Y-185028629D01*
X195716484Y-184957200D01*
X195645056Y-184885771D01*
X195645056Y-185028629D01*
X196930770Y-186314343D02*
X196787913Y-186385771D01*
X196502199Y-186385771D01*
X196359342Y-186314343D01*
X196287913Y-186171486D01*
X196287913Y-185600057D01*
X196359342Y-185457200D01*
X196502199Y-185385771D01*
X196787913Y-185385771D01*
X196930770Y-185457200D01*
X197002199Y-185600057D01*
X197002199Y-185742914D01*
X196287913Y-185885771D01*
X197859342Y-186385771D02*
X197716484Y-186314343D01*
X197645056Y-186171486D01*
X197645056Y-184885771D01*
X199073627Y-186385771D02*
X199073627Y-184885771D01*
X199073627Y-186314343D02*
X198930770Y-186385771D01*
X198645056Y-186385771D01*
X198502198Y-186314343D01*
X198430770Y-186242914D01*
X198359341Y-186100057D01*
X198359341Y-185671486D01*
X198430770Y-185528629D01*
X198502198Y-185457200D01*
X198645056Y-185385771D01*
X198930770Y-185385771D01*
X199073627Y-185457200D01*
X199787913Y-186242914D02*
X199859341Y-186314343D01*
X199787913Y-186385771D01*
X199716484Y-186314343D01*
X199787913Y-186242914D01*
X199787913Y-186385771D01*
X200502199Y-186385771D02*
X200502199Y-184885771D01*
X200645056Y-185814343D02*
X201073627Y-186385771D01*
X201073627Y-185385771D02*
X200502199Y-185957200D01*
X201716485Y-186385771D02*
X201716485Y-185385771D01*
X201716485Y-184885771D02*
X201645056Y-184957200D01*
X201716485Y-185028629D01*
X201787913Y-184957200D01*
X201716485Y-184885771D01*
X201716485Y-185028629D01*
X203073628Y-186314343D02*
X202930771Y-186385771D01*
X202645057Y-186385771D01*
X202502199Y-186314343D01*
X202430771Y-186242914D01*
X202359342Y-186100057D01*
X202359342Y-185671486D01*
X202430771Y-185528629D01*
X202502199Y-185457200D01*
X202645057Y-185385771D01*
X202930771Y-185385771D01*
X203073628Y-185457200D01*
X204359342Y-186385771D02*
X204359342Y-185600057D01*
X204287913Y-185457200D01*
X204145056Y-185385771D01*
X203859342Y-185385771D01*
X203716485Y-185457200D01*
X204359342Y-186314343D02*
X204216485Y-186385771D01*
X203859342Y-186385771D01*
X203716485Y-186314343D01*
X203645056Y-186171486D01*
X203645056Y-186028629D01*
X203716485Y-185885771D01*
X203859342Y-185814343D01*
X204216485Y-185814343D01*
X204359342Y-185742914D01*
X205716485Y-186385771D02*
X205716485Y-184885771D01*
X205716485Y-186314343D02*
X205573628Y-186385771D01*
X205287914Y-186385771D01*
X205145056Y-186314343D01*
X205073628Y-186242914D01*
X205002199Y-186100057D01*
X205002199Y-185671486D01*
X205073628Y-185528629D01*
X205145056Y-185457200D01*
X205287914Y-185385771D01*
X205573628Y-185385771D01*
X205716485Y-185457200D01*
X206073628Y-186528629D02*
X207216485Y-186528629D01*
X207573628Y-185385771D02*
X207573628Y-186885771D01*
X207573628Y-185457200D02*
X207716485Y-185385771D01*
X208002199Y-185385771D01*
X208145056Y-185457200D01*
X208216485Y-185528629D01*
X208287914Y-185671486D01*
X208287914Y-186100057D01*
X208216485Y-186242914D01*
X208145056Y-186314343D01*
X208002199Y-186385771D01*
X207716485Y-186385771D01*
X207573628Y-186314343D01*
X209573628Y-186314343D02*
X209430771Y-186385771D01*
X209145057Y-186385771D01*
X209002199Y-186314343D01*
X208930771Y-186242914D01*
X208859342Y-186100057D01*
X208859342Y-185671486D01*
X208930771Y-185528629D01*
X209002199Y-185457200D01*
X209145057Y-185385771D01*
X209430771Y-185385771D01*
X209573628Y-185457200D01*
X210216485Y-186385771D02*
X210216485Y-184885771D01*
X210216485Y-185457200D02*
X210359342Y-185385771D01*
X210645056Y-185385771D01*
X210787913Y-185457200D01*
X210859342Y-185528629D01*
X210930771Y-185671486D01*
X210930771Y-186100057D01*
X210859342Y-186242914D01*
X210787913Y-186314343D01*
X210645056Y-186385771D01*
X210359342Y-186385771D01*
X210216485Y-186314343D01*
D10*
D11*
X177002200Y-181507200D02*
X285002200Y-181507200D01*
D10*
D11*
X178287914Y-183614343D02*
X178502200Y-183685771D01*
X178859343Y-183685771D01*
X179002200Y-183614343D01*
X179073629Y-183542914D01*
X179145057Y-183400057D01*
X179145057Y-183257200D01*
X179073629Y-183114343D01*
X179002200Y-183042914D01*
X178859343Y-182971486D01*
X178573629Y-182900057D01*
X178430771Y-182828629D01*
X178359343Y-182757200D01*
X178287914Y-182614343D01*
X178287914Y-182471486D01*
X178359343Y-182328629D01*
X178430771Y-182257200D01*
X178573629Y-182185771D01*
X178930771Y-182185771D01*
X179145057Y-182257200D01*
X179787914Y-183685771D02*
X179787914Y-182185771D01*
X180430771Y-183685771D02*
X180430771Y-182900057D01*
X180359342Y-182757200D01*
X180216485Y-182685771D01*
X180002200Y-182685771D01*
X179859342Y-182757200D01*
X179787914Y-182828629D01*
X181716485Y-183614343D02*
X181573628Y-183685771D01*
X181287914Y-183685771D01*
X181145057Y-183614343D01*
X181073628Y-183471486D01*
X181073628Y-182900057D01*
X181145057Y-182757200D01*
X181287914Y-182685771D01*
X181573628Y-182685771D01*
X181716485Y-182757200D01*
X181787914Y-182900057D01*
X181787914Y-183042914D01*
X181073628Y-183185771D01*
X183002199Y-183614343D02*
X182859342Y-183685771D01*
X182573628Y-183685771D01*
X182430771Y-183614343D01*
X182359342Y-183471486D01*
X182359342Y-182900057D01*
X182430771Y-182757200D01*
X182573628Y-182685771D01*
X182859342Y-182685771D01*
X183002199Y-182757200D01*
X183073628Y-182900057D01*
X183073628Y-183042914D01*
X182359342Y-183185771D01*
X183502199Y-182685771D02*
X184073628Y-182685771D01*
X183716485Y-182185771D02*
X183716485Y-183471486D01*
X183787913Y-183614343D01*
X183930771Y-183685771D01*
X184073628Y-183685771D01*
X184573628Y-183542914D02*
X184645056Y-183614343D01*
X184573628Y-183685771D01*
X184502199Y-183614343D01*
X184573628Y-183542914D01*
X184573628Y-183685771D01*
X184573628Y-182757200D02*
X184645056Y-182828629D01*
X184573628Y-182900057D01*
X184502199Y-182828629D01*
X184573628Y-182757200D01*
X184573628Y-182900057D01*
D10*
D11*
X197002200Y-191507200D02*
X197002200Y-194507200D01*
D10*
D11*
X261002200Y-191507200D02*
X261002200Y-198007200D01*
D14*
X198156672Y-88247481D02*
X198156672Y-87247481D01*
X198156672Y-88199862D02*
X198251910Y-88247481D01*
X198442387Y-88247481D01*
X198537625Y-88199862D01*
X198585244Y-88152243D01*
X198632863Y-88057005D01*
X198632863Y-87771290D01*
X198585244Y-87676052D01*
X198537625Y-87628433D01*
X198442387Y-87580814D01*
X198251910Y-87580814D01*
X198156672Y-87628433D01*
X197299529Y-88199862D02*
X197394767Y-88247481D01*
X197585244Y-88247481D01*
X197680482Y-88199862D01*
X197728101Y-88104624D01*
X197728101Y-87723671D01*
X197680482Y-87628433D01*
X197585244Y-87580814D01*
X197394767Y-87580814D01*
X197299529Y-87628433D01*
X197251910Y-87723671D01*
X197251910Y-87818910D01*
X197728101Y-87914148D01*
X196966196Y-87580814D02*
X196585244Y-87580814D01*
X196823339Y-88247481D02*
X196823339Y-87390338D01*
X196775720Y-87295100D01*
X196680482Y-87247481D01*
X196585244Y-87247481D01*
X196251910Y-87580814D02*
X196251910Y-88580814D01*
X196251910Y-87628433D02*
X196156672Y-87580814D01*
X195966195Y-87580814D01*
X195870957Y-87628433D01*
X195823338Y-87676052D01*
X195775719Y-87771290D01*
X195775719Y-88057005D01*
X195823338Y-88152243D01*
X195870957Y-88199862D01*
X195966195Y-88247481D01*
X196156672Y-88247481D01*
X196251910Y-88199862D01*
X195347148Y-88247481D02*
X195347148Y-87580814D01*
X195347148Y-87771290D02*
X195299529Y-87676052D01*
X195251910Y-87628433D01*
X195156672Y-87580814D01*
X195061433Y-87580814D01*
X194585243Y-88247481D02*
X194680481Y-88199862D01*
X194728100Y-88152243D01*
X194775719Y-88057005D01*
X194775719Y-87771290D01*
X194728100Y-87676052D01*
X194680481Y-87628433D01*
X194585243Y-87580814D01*
X194442385Y-87580814D01*
X194347147Y-87628433D01*
X194299528Y-87676052D01*
X194251909Y-87771290D01*
X194251909Y-88057005D01*
X194299528Y-88152243D01*
X194347147Y-88199862D01*
X194442385Y-88247481D01*
X194585243Y-88247481D01*
X193394766Y-88199862D02*
X193490004Y-88247481D01*
X193680481Y-88247481D01*
X193775719Y-88199862D01*
X193823338Y-88152243D01*
X193870957Y-88057005D01*
X193870957Y-87771290D01*
X193823338Y-87676052D01*
X193775719Y-87628433D01*
X193680481Y-87580814D01*
X193490004Y-87580814D01*
X193394766Y-87628433D01*
X192966195Y-88152243D02*
X192918576Y-88199862D01*
X192966195Y-88247481D01*
X193013814Y-88199862D01*
X192966195Y-88152243D01*
X192966195Y-88247481D01*
X192061433Y-88199862D02*
X192156671Y-88247481D01*
X192347148Y-88247481D01*
X192442386Y-88199862D01*
X192490005Y-88152243D01*
X192537624Y-88057005D01*
X192537624Y-87771290D01*
X192490005Y-87676052D01*
X192442386Y-87628433D01*
X192347148Y-87580814D01*
X192156671Y-87580814D01*
X192061433Y-87628433D01*
X191490005Y-88247481D02*
X191585243Y-88199862D01*
X191632862Y-88152243D01*
X191680481Y-88057005D01*
X191680481Y-87771290D01*
X191632862Y-87676052D01*
X191585243Y-87628433D01*
X191490005Y-87580814D01*
X191347147Y-87580814D01*
X191251909Y-87628433D01*
X191204290Y-87676052D01*
X191156671Y-87771290D01*
X191156671Y-88057005D01*
X191204290Y-88152243D01*
X191251909Y-88199862D01*
X191347147Y-88247481D01*
X191490005Y-88247481D01*
X190728100Y-88152243D02*
X190680481Y-88199862D01*
X190728100Y-88247481D01*
X190775719Y-88199862D01*
X190728100Y-88152243D01*
X190728100Y-88247481D01*
X189823338Y-87580814D02*
X189823338Y-88247481D01*
X190251910Y-87580814D02*
X190251910Y-88104624D01*
X190204291Y-88199862D01*
X190109053Y-88247481D01*
X189966195Y-88247481D01*
X189870957Y-88199862D01*
X189823338Y-88152243D01*
X189347148Y-88247481D02*
X189347148Y-87247481D01*
X189251910Y-87866529D02*
X188966195Y-88247481D01*
X188966195Y-87580814D02*
X189347148Y-87961767D01*
X187823338Y-87199862D02*
X188680481Y-88485576D01*
X187490005Y-87580814D02*
X187490005Y-88580814D01*
X187490005Y-87628433D02*
X187394767Y-87580814D01*
X187204290Y-87580814D01*
X187109052Y-87628433D01*
X187061433Y-87676052D01*
X187013814Y-87771290D01*
X187013814Y-88057005D01*
X187061433Y-88152243D01*
X187109052Y-88199862D01*
X187204290Y-88247481D01*
X187394767Y-88247481D01*
X187490005Y-88199862D01*
X185870957Y-87199862D02*
X186728100Y-88485576D01*
X185061433Y-88247481D02*
X185537624Y-88247481D01*
X185537624Y-87247481D01*
X184585243Y-88247481D02*
X184680481Y-88199862D01*
X184728100Y-88152243D01*
X184775719Y-88057005D01*
X184775719Y-87771290D01*
X184728100Y-87676052D01*
X184680481Y-87628433D01*
X184585243Y-87580814D01*
X184442385Y-87580814D01*
X184347147Y-87628433D01*
X184299528Y-87676052D01*
X184251909Y-87771290D01*
X184251909Y-88057005D01*
X184299528Y-88152243D01*
X184347147Y-88199862D01*
X184442385Y-88247481D01*
X184585243Y-88247481D01*
X183251909Y-88247481D02*
X183585243Y-87771290D01*
X183823338Y-88247481D02*
X183823338Y-87247481D01*
X183442385Y-87247481D01*
X183347147Y-87295100D01*
X183299528Y-87342719D01*
X183251909Y-87437957D01*
X183251909Y-87580814D01*
X183299528Y-87676052D01*
X183347147Y-87723671D01*
X183442385Y-87771290D01*
X183823338Y-87771290D01*
X182394766Y-88247481D02*
X182394766Y-87723671D01*
X182442385Y-87628433D01*
X182537623Y-87580814D01*
X182728100Y-87580814D01*
X182823338Y-87628433D01*
X182394766Y-88199862D02*
X182490004Y-88247481D01*
X182728100Y-88247481D01*
X182823338Y-88199862D01*
X182870957Y-88104624D01*
X182870957Y-88009386D01*
X182823338Y-87914148D01*
X182728100Y-87866529D01*
X182490004Y-87866529D01*
X182394766Y-87818910D01*
X182013814Y-87247481D02*
X181775719Y-88247481D01*
X181585242Y-87533195D01*
X181394766Y-88247481D01*
X181156671Y-87247481D01*
X180823338Y-87961767D02*
X180347147Y-87961767D01*
X180918576Y-88247481D02*
X180585243Y-87247481D01*
X180251909Y-88247481D01*
X179918576Y-88247481D02*
X179918576Y-87247481D01*
X179347147Y-88247481D01*
X179347147Y-87247481D01*
X178918576Y-88199862D02*
X178823338Y-88247481D01*
X178632862Y-88247481D01*
X178537623Y-88199862D01*
X178490004Y-88104624D01*
X178490004Y-88057005D01*
X178537623Y-87961767D01*
X178632862Y-87914148D01*
X178775719Y-87914148D01*
X178870957Y-87866529D01*
X178918576Y-87771290D01*
X178918576Y-87723671D01*
X178870957Y-87628433D01*
X178775719Y-87580814D01*
X178632862Y-87580814D01*
X178537623Y-87628433D01*
X178061433Y-88247481D02*
X178061433Y-87247481D01*
X177632861Y-88247481D02*
X177632861Y-87723671D01*
X177680480Y-87628433D01*
X177775718Y-87580814D01*
X177918576Y-87580814D01*
X178013814Y-87628433D01*
X178061433Y-87676052D01*
X177156671Y-88247481D02*
X177156671Y-87580814D01*
X177156671Y-87247481D02*
X177204290Y-87295100D01*
X177156671Y-87342719D01*
X177109052Y-87295100D01*
X177156671Y-87247481D01*
X177156671Y-87342719D01*
X176299528Y-88199862D02*
X176394766Y-88247481D01*
X176585243Y-88247481D01*
X176680481Y-88199862D01*
X176728100Y-88104624D01*
X176728100Y-87723671D01*
X176680481Y-87628433D01*
X176585243Y-87580814D01*
X176394766Y-87580814D01*
X176299528Y-87628433D01*
X176251909Y-87723671D01*
X176251909Y-87818910D01*
X176728100Y-87914148D01*
X175680481Y-88247481D02*
X175775719Y-88199862D01*
X175823338Y-88104624D01*
X175823338Y-87247481D01*
X174870956Y-88247481D02*
X174870956Y-87247481D01*
X174870956Y-88199862D02*
X174966194Y-88247481D01*
X175156671Y-88247481D01*
X175251909Y-88199862D01*
X175299528Y-88152243D01*
X175347147Y-88057005D01*
X175347147Y-87771290D01*
X175299528Y-87676052D01*
X175251909Y-87628433D01*
X175156671Y-87580814D01*
X174966194Y-87580814D01*
X174870956Y-87628433D01*
%LPC*%
D15*
X164084000Y-96520000D03*
D16*
X164084000Y-93980000D03*
X164084000Y-91440000D03*
X164084000Y-88900000D03*
X164084000Y-86360000D03*
X164084000Y-83820000D03*
X164084000Y-81280000D03*
X164084000Y-78740000D03*
X164084000Y-76200000D03*
X164084000Y-73660000D03*
X164084000Y-71120000D03*
X164084000Y-68580000D03*
X164084000Y-66040000D03*
X164084000Y-63500000D03*
D17*
X212000000Y-102410000D03*
X209460000Y-102410000D03*
X206920000Y-102410000D03*
X199300000Y-102410000D03*
X201840000Y-102410000D03*
X204380000Y-102410000D03*
X194220000Y-102410000D03*
X191680000Y-102410000D03*
X189140000Y-102410000D03*
X184060000Y-102410000D03*
X181520000Y-102410000D03*
X212000000Y-54150000D03*
X209460000Y-54150000D03*
X206920000Y-54150000D03*
X204380000Y-54150000D03*
X201840000Y-54150000D03*
X199300000Y-54150000D03*
X196760000Y-54150000D03*
X194220000Y-54150000D03*
X190156000Y-54150000D03*
X187616000Y-54150000D03*
X185076000Y-54150000D03*
X182536000Y-54150000D03*
X179996000Y-54150000D03*
X177456000Y-54150000D03*
X174916000Y-54150000D03*
X172376000Y-54150000D03*
X186600000Y-102410000D03*
D18*
X214540000Y-69390000D03*
X163740000Y-54150000D03*
X162470000Y-102410000D03*
D17*
X169836000Y-54150000D03*
X167296000Y-54150000D03*
X178980000Y-102410000D03*
X176440000Y-102410000D03*
D19*
X211285000Y-89682000D03*
D20*
X214460000Y-98318000D03*
X214460000Y-89682000D03*
D19*
X211285000Y-98318000D03*
D21*
X214460000Y-94000000D03*
M02*
